{
    "accessors": {
        "accessor_21": {
            "bufferView": "bufferView_29",
            "byteOffset": 0,
            "byteStride": 0,
            "componentType": 5123,
            "count": 20406,
            "type": "SCALAR"
        },
        "accessor_23": {
            "bufferView": "bufferView_30",
            "byteOffset": 0,
            "byteStride": 12,
            "componentType": 5126,
            "count": 10728,
            "max": [
                5.5285,
                3.9236,
                6.2017
            ],
            "min": [
                -1.5928,
                -3.8899,
                -0.9606
            ],
            "type": "VEC3"
        },
        "accessor_25": {
            "bufferView": "bufferView_30",
            "byteOffset": 128736,
            "byteStride": 12,
            "componentType": 5126,
            "count": 10728,
            "max": [
                0.9969,
                1,
                0.9998
            ],
            "min": [
                -1,
                -1,
                -0.9998
            ],
            "type": "VEC3"
        },
        "accessor_27": {
            "bufferView": "bufferView_30",
            "byteOffset": 257472,
            "byteStride": 8,
            "componentType": 5126,
            "count": 10728,
            "max": [
                0.9912,
                0.9918
            ],
            "min": [
                0.0124,
                0.0131
            ],
            "type": "VEC2"
        }
    },
    "animations": {},
    "asset": {
        "generator": "collada2gltf@d78daf1e7950e6c22fe6bec1d07965e8a302e90d",
        "premultipliedAlpha": true,
        "profile": {
            "api": "WebGL",
            "version": "1.0.2"
        },
        "version": 1
    },
    "bufferViews": {
        "bufferView_29": {
            "buffer": "radar",
            "byteLength": 40812,
            "byteOffset": 0,
            "target": 34963
        },
        "bufferView_30": {
            "buffer": "radar",
            "byteLength": 343296,
            "byteOffset": 40812,
            "target": 34962
        }
    },
    "buffers": {
        "radar": {
            "byteLength": 384108,
            "type": "arraybuffer",
            "uri": "radar.bin"
        }
    },
    "images": {
        "_______png": {
            "name": "_______png",
            "uri": "images/0_FSQ.png"
        }
    },
    "materials": {
        "Material__181": {
            "name": "Material__181",
            "technique": "technique0",
            "values": {
                "ambient": "texture________png",
                "diffuse": "texture________png",
                "emission": [
                    0,
                    0,
                    0,
                    1
                ],
                "shininess": 0,
                "specular": [
                    0.9,
                    0.9,
                    0.9,
                    1
                ]
            }
        }
    },
    "meshes": {
        "geom-____01": {
            "name": "____01",
            "primitives": [
                {
                    "attributes": {
                        "NORMAL": "accessor_25",
                        "POSITION": "accessor_23",
                        "TEXCOORD_0": "accessor_27"
                    },
                    "indices": "accessor_21",
                    "material": "Material__181",
                    "mode": 4
                }
            ]
        }
    },
    "nodes": {
        "node-____01": {
            "children": [],
            "matrix": [
                1,
                0,
                0,
                0,
                0,
                1,
                0,
                0,
                0,
                0,
                1,
                0,
                0,
                0,
                0,
                1
            ],
            "meshes": [
                "geom-____01"
            ],
            "name": "____01"
        },
        "node_0": {
            "children": [],
            "matrix": [
                1,
                0,
                0,
                0,
                0,
                1,
                0,
                0,
                0,
                0,
                1,
                0,
                0,
                0,
                0,
                1
            ],
            "name": "EnvironmentAmbientLight"
        },
        "node_2": {
            "children": [
                "node_0",
                "node-____01"
            ],
            "matrix": [
                1,
                0,
                0,
                0,
                0,
                0,
                -1,
                0,
                0,
                1,
                0,
                0,
                0,
                0,
                0,
                1
            ],
            "name": "Y_UP_Transform"
        }
    },
    "programs": {
        "program_0": {
            "attributes": [
                "a_normal",
                "a_position",
                "a_texcoord0"
            ],
            "fragmentShader": "radar0FS",
            "vertexShader": "radar0VS"
        }
    },
    "samplers": {
        "sampler_0": {
            "magFilter": 9729,
            "minFilter": 9729,
            "wrapS": 10497,
            "wrapT": 10497
        }
    },
    "scene": "defaultScene",
    "scenes": {
        "defaultScene": {
            "nodes": [
                "node_2"
            ]
        }
    },
    "shaders": {
        "radar0FS": {
            "type": 35632,
            "uri": "radar0FS.glsl"
        },
        "radar0VS": {
            "type": 35633,
            "uri": "radar0VS.glsl"
        }
    },
    "skins": {},
    "techniques": {
        "technique0": {
            "attributes": {
                "a_normal": "normal",
                "a_position": "position",
                "a_texcoord0": "texcoord0"
            },
            "parameters": {
                "ambient": {
                    "type": 35678
                },
                "diffuse": {
                    "type": 35678
                },
                "emission": {
                    "type": 35666
                },
                "modelViewMatrix": {
                    "semantic": "MODELVIEW",
                    "type": 35676
                },
                "normal": {
                    "semantic": "NORMAL",
                    "type": 35665
                },
                "normalMatrix": {
                    "semantic": "MODELVIEWINVERSETRANSPOSE",
                    "type": 35675
                },
                "position": {
                    "semantic": "POSITION",
                    "type": 35665
                },
                "projectionMatrix": {
                    "semantic": "PROJECTION",
                    "type": 35676
                },
                "shininess": {
                    "type": 5126
                },
                "specular": {
                    "type": 35666
                },
                "texcoord0": {
                    "semantic": "TEXCOORD_0",
                    "type": 35664
                }
            },
            "program": "program_0",
            "states": {
                "enable": [
                    2929,
                    2884
                ]
            },
            "uniforms": {
                "u_ambient": "ambient",
                "u_diffuse": "diffuse",
                "u_emission": "emission",
                "u_modelViewMatrix": "modelViewMatrix",
                "u_normalMatrix": "normalMatrix",
                "u_projectionMatrix": "projectionMatrix",
                "u_shininess": "shininess",
                "u_specular": "specular"
            }
        }
    },
    "textures": {
        "texture________png": {
            "format": 6408,
            "internalFormat": 6408,
            "sampler": "sampler_0",
            "source": "_______png",
            "target": 3553,
            "type": 5121
        }
    }
}